<svg xmlns="http://www.w3.org/2000/svg" enable-background="new 0 0 64 64" viewBox="0 0 64 64" id="cloud-lightning"><path d="M56.96,21.71c0.2-0.85,0.3-1.72,0.3-2.59c0-6.04-4.91-10.96-10.95-10.96c-1.09,0-2.14,0.16-3.14,0.47
		c-2.23-4.03-6.52-6.59-11.16-6.59c-6.42,0-11.83,4.88-12.64,11.13c-0.9-0.27-1.84-0.4-2.78-0.4c-5.29,0-9.64,4.14-9.96,9.44
		C2.58,24.3,0,28.51,0,33.12c0,6.78,5.51,12.29,12.28,12.29h9.79l-1.04,2.38c-0.14,0.31-0.1,0.67,0.1,0.95
		c0.19,0.27,0.51,0.43,0.86,0.41l7.87-0.59l-6.26,12c-0.22,0.43-0.1,0.96,0.3,1.24c0.16,0.12,0.37,0.17,0.56,0.17
		c0.26,0,0.51-0.1,0.7-0.3l15.55-16.26h10.8C58.4,45.41,64,39.8,64,32.92C64,28.09,61.27,23.77,56.96,21.71z M28.48,55.39l3.91-7.49
		c0.16-0.32,0.15-0.69-0.05-0.99c-0.18-0.27-0.48-0.44-0.81-0.44c-0.02,0-0.05,0-0.07,0.01l-8,0.59L30.7,30.5h9.59l-7.98,12.14
		c-0.19,0.31-0.21,0.71-0.02,1.03c0.18,0.31,0.51,0.49,0.9,0.48l6.47-0.45L28.48,55.39z M51.52,43.47h-8.95l0.22-0.23
		c0.27-0.29,0.34-0.72,0.17-1.08c-0.17-0.37-0.53-0.59-0.95-0.56l-7.01,0.48l7.89-12.02c0.19-0.29,0.21-0.68,0.04-0.99
		c-0.16-0.31-0.49-0.5-0.85-0.5H30.07c-0.39,0-0.74,0.22-0.89,0.58l-6.26,14.32H12.28c-5.7,0-10.34-4.64-10.34-10.35
		c0-4.05,2.37-7.75,6.04-9.43c0.34-0.16,0.56-0.58,0.56-0.97c0-4.42,3.61-8.02,8.04-8.02c1.12,0,2.21,0.23,3.26,0.69
		c0.3,0.13,0.64,0.11,0.91-0.07c0.27-0.17,0.45-0.48,0.46-0.8c0.14-5.83,4.98-10.56,10.8-10.56c4.19,0,8.03,2.45,9.8,6.26
		c0.21,0.47,0.77,0.68,1.24,0.48c1.02-0.42,2.11-0.62,3.26-0.62c4.96,0,9.01,4.04,9.01,9.02c0,0.96-0.15,1.91-0.45,2.83
		c-0.16,0.48,0.09,1.02,0.56,1.2c4.02,1.61,6.62,5.44,6.62,9.76C62.06,38.73,57.34,43.47,51.52,43.47z"></path><path fill="#60bbe9" d="M62.06,32.92c0,5.82-4.72,10.55-10.54,10.55h-8.95l0.22-0.23c0.27-0.29,0.34-0.72,0.17-1.08
		c-0.17-0.37-0.53-0.59-0.95-0.56l-7.01,0.48l7.89-12.02c0.19-0.29,0.21-0.68,0.04-0.99c-0.16-0.31-0.49-0.5-0.85-0.5H30.07
		c-0.39,0-0.74,0.22-0.89,0.58l-6.26,14.32H12.28c-5.7,0-10.34-4.64-10.34-10.35c0-4.05,2.37-7.75,6.04-9.43
		c0.34-0.16,0.56-0.58,0.56-0.97c0-4.42,3.61-8.02,8.04-8.02c1.12,0,2.21,0.23,3.26,0.69c0.3,0.13,0.64,0.11,0.91-0.07
		c0.27-0.17,0.45-0.48,0.46-0.8c0.14-5.83,4.98-10.56,10.8-10.56c4.19,0,8.03,2.45,9.8,6.26c0.21,0.47,0.77,0.68,1.24,0.48
		c1.02-0.42,2.11-0.62,3.26-0.62c4.96,0,9.01,4.04,9.01,9.02c0,0.96-0.15,1.91-0.45,2.83c-0.16,0.48,0.09,1.02,0.56,1.2
		C59.46,24.76,62.06,28.59,62.06,32.92z"></path><path fill="#51b8e0" d="M62.06,32.92c0,5.82-4.72,10.55-10.54,10.55h-2.91c2.95-1.86,4.91-5.16,4.91-8.91c0-4.32-2.6-8.16-6.62-9.76
		c-0.48-0.18-0.73-0.72-0.56-1.2c0.3-0.92,0.45-1.87,0.45-2.83c0-4.97-4.04-9.02-9.01-9.02c-1.14,0-2.24,0.2-3.26,0.62
		c-0.48,0.19-1.03-0.02-1.24-0.48c-1.43-3.05-4.18-5.25-7.38-5.98c1.75-1.21,3.86-1.92,6.12-1.92c4.19,0,8.03,2.45,9.8,6.26
		c0.21,0.47,0.77,0.68,1.24,0.48c1.02-0.42,2.11-0.62,3.26-0.62c4.96,0,9.01,4.04,9.01,9.02c0,0.96-0.15,1.91-0.45,2.83
		c-0.16,0.48,0.09,1.02,0.56,1.2C59.46,24.76,62.06,28.59,62.06,32.92z"></path><path fill="#ffcb4c" d="M33.19,44.15l6.47-0.45L28.48,55.39l3.91-7.49c0.16-0.32,0.15-0.69-0.05-0.99c-0.18-0.27-0.48-0.44-0.81-0.44
		c-0.02,0-0.05,0-0.07,0.01l-8,0.59L30.7,30.5h9.59l-7.98,12.14c-0.19,0.31-0.21,0.71-0.02,1.03C32.48,43.98,32.8,44.16,33.19,44.15
		z"></path><path fill="#f7be3d" d="M33.19,44.15l6.47-0.45L28.48,55.39l3.78-7.23l3.22-3.37l-6.47,0.45c-0.39,0.03-0.72-0.16-0.9-0.48
		c-0.19-0.32-0.17-0.71,0.02-1.03l7.98-12.14h-5.89l0.48-1.09h9.59l-7.98,12.14c-0.19,0.31-0.21,0.71-0.02,1.03
		C32.48,43.98,32.8,44.16,33.19,44.15z"></path></svg>