<svg xmlns="http://www.w3.org/2000/svg" xmlns:xlink="http://www.w3.org/1999/xlink" viewBox="0 0 48 48">
    <defs>
        <linearGradient id="prefix__c" y2="-381.3" xlink:href="#prefix__a" gradientUnits="userSpaceOnUse" x2="27.4"
            gradientTransform="matrix(-.05359 .10285 -.09281 -.05938 198.91 -255.69)" y1="-359.82" x1="6.894" />
        <linearGradient id="prefix__o" y2="-436.83" xlink:href="#prefix__a" gradientUnits="userSpaceOnUse" x2="288.9"
            y1="-441.23" x1="284.8" />
        <linearGradient id="prefix__n" y2="-436.71" xlink:href="#prefix__a" gradientUnits="userSpaceOnUse" x2="289.77"
            y1="-439.48" x1="286.67" />
        <linearGradient id="prefix__m" y2="-431.92" xlink:href="#prefix__a" gradientUnits="userSpaceOnUse" x2="279.98"
            gradientTransform="translate(-35 207)" y1="-437.11" x1="275.94" />
        <linearGradient id="prefix__l" y2="-436.44" xlink:href="#prefix__a" gradientUnits="userSpaceOnUse" x2="289.39"
            y1="-439.94" x1="285.94" />
        <linearGradient id="prefix__k" y2="-436.14" xlink:href="#prefix__a" gradientUnits="userSpaceOnUse" x2="289.85"
            y1="-441.29" x1="286.51" />
        <linearGradient id="prefix__j" y2="-436.32" xlink:href="#prefix__a" gradientUnits="userSpaceOnUse" x2="289.68"
            y1="-439.75" x1="287.52" />
        <linearGradient id="prefix__i" y2="-431.97" xlink:href="#prefix__a" gradientUnits="userSpaceOnUse" x2="285.03"
            gradientTransform="translate(-34 207)" y1="-441.05" x1="271.02" />
        <linearGradient id="prefix__h" y2="-382.65" gradientUnits="userSpaceOnUse" x2="245.65" y1="-388.47" x1="238">
            <stop offset="0" stop-color="#fff" />
            <stop offset="1" stop-color="#fff" stop-opacity="0" />
        </linearGradient>
        <linearGradient id="prefix__g" y2="-386.96" gradientUnits="userSpaceOnUse" x2="235.26" y1="-390.44" x1="230.88">
            <stop offset="0" stop-color="#fff" />
            <stop offset="1" stop-color="#fff" stop-opacity="0" />
        </linearGradient>
        <linearGradient id="prefix__f" y2="-385.35" gradientUnits="userSpaceOnUse" x2="252.7" y1="-391.31" x1="246.74">
            <stop offset="0" stop-color="#fff" />
            <stop offset="1" stop-color="#fff" stop-opacity="0" />
        </linearGradient>
        <linearGradient id="prefix__e" y2="-388.55" gradientUnits="userSpaceOnUse" x2="245.83" y1="-393.41" x1="240.07">
            <stop offset="0" stop-color="#fff" />
            <stop offset="1" stop-color="#fff" stop-opacity="0" />
        </linearGradient>
        <linearGradient id="prefix__d" y2="-379.27" gradientUnits="userSpaceOnUse" x2="266.36"
            gradientTransform="translate(69 155)" y1="-392.31" x1="228.5">
            <stop offset="0" stop-color="#fff" />
            <stop offset="1" stop-color="#fff" stop-opacity="0" />
        </linearGradient>
        <linearGradient id="prefix__a">
            <stop offset="0" stop-color="#fff" />
            <stop offset="1" stop-color="#fff" stop-opacity="0" />
        </linearGradient>
        <radialGradient id="prefix__b" xlink:href="#prefix__a" gradientUnits="userSpaceOnUse" cy="-382.96" cx="21.92"
            gradientTransform="matrix(.07065 .04155 -.06202 .10941 207.48 -189.82)" r="21.744" />
    </defs>
    <path d="M28.68 42.24c-1.04-.6-1.4-1.92-.8-2.95 1.33-2.08 3.11-1.55 4.01-3.74 1.26 1.33.8 8.25-3.21 6.69z"
        stroke="#204a87" stroke-miterlimit="2" stroke-width="1.075" fill="#729fcf" />
    <path d="M234.31-229.9c-.49.86-1.57 1.16-2.42.66s-1.14-1.61-.65-2.47 2.6-.45 3.34-2.29c.85.5.22 3.23-.27 4.1z"
        opacity=".461" fill="url(#prefix__b)" transform="translate(-202.95 271.01)" />
    <path d="M233.02-229c-4.61-1.07.24-4.72.98-3.92-3.58 1.37-.98 3.92-.98 3.92z" fill="url(#prefix__c)"
        transform="translate(-202.95 271.01)" />
    <path
        d="M24.55 2c-2.769 0-5.108 1.57-6.408 3.81-.94-.47-1.959-.81-3.089-.81-3.858 0-6.997 3.14-6.997 7s3.139 7 6.997 7c2.42 0 4.429-1.32 5.689-3.19 1.13.69 2.389 1.19 3.808 1.19.91 0 1.75-.23 2.56-.53.51.87 1.18 1.58 1.999 2.16 0 .13-.06.24-.06.37 0 3.86 3.139 7 6.998 7s6.997-3.14 6.997-7c0-2.37-1.26-4.36-3.059-5.62 0-.14.06-.25.06-.38 0-3.86-3.139-7-6.997-7-.62 0-1.18.22-1.75.38C30.108 3.82 27.56 2 24.55 2z"
        fill="#555753" />
    <path
        d="M311.5-242c-2.78 0-5.13 1.76-6.06 4.22-.99-.71-2.13-1.22-3.44-1.22-3.31 0-6 2.69-6 6s2.69 6 6 6c2.43 0 4.49-1.46 5.44-3.53 1.12.92 2.5 1.53 4.06 1.53 1.07 0 2.04-.32 2.94-.78.4 1 1.1 1.79 1.94 2.44-.19.59-.38 1.19-.38 1.84a6.5 6.5 0 1013 0c0-2.36-1.33-4.33-3.22-5.47.06-.35.22-.66.22-1.03 0-3.31-2.69-6-6-6-.85 0-1.67.18-2.41.5-.85-2.59-3.21-4.5-6.09-4.5z"
        fill="url(#prefix__d)" transform="matrix(.99968 0 0 1 -286.85 245)" />
    <path
        d="M42.048 19.5a6.498 6.5 0 11-12.997 0 6.498 6.5 0 1112.997 0zM30.046 9.502a5.498 5.5 0 11-10.994 0 5.498 5.5 0 1110.994 0z"
        fill="#888a85" />
    <path d="M250.18-389.3a6.231 6.231 0 11-12.46 0 6.231 6.231 0 1112.46 0z"
        transform="matrix(.88235 0 0 .88263 -190.7 353.11)" opacity=".494" fill="url(#prefix__e)" />
    <path d="M38.043 13.494a5.498 5.5 0 11-10.992 0 5.498 5.5 0 1110.992 0z" fill="#888a85" />
    <path d="M257.25-385.79a6.032 6.032 0 11-12.06 0 6.032 6.032 0 1112.06 0z"
        transform="matrix(.91144 0 0 .91173 -196.425 365.23)" opacity=".494" fill="url(#prefix__f)" />
    <g>
        <path d="M20.053 12a4.998 5 0 11-9.996 0 4.998 5 0 119.996 0z" fill="#888a85" />
        <path d="M237.81-387.89a4.375 4.375 0 11-8.75 0 4.375 4.375 0 118.75 0z"
            transform="matrix(1.14243 0 0 1.1428 -251.63 455.28)" opacity=".494" fill="url(#prefix__g)" />
    </g>
    <g>
        <path d="M31.041 16.01a6.998 7 0 11-13.996 0 6.998 7 0 1113.996 0z" fill="#888a85" />
        <path d="M248.55-383.67a6.74 6.74 0 11-13.48 0 6.74 6.74 0 1113.48 0z"
            transform="matrix(1.03827 0 0 1.0386 -227.02 414.49)" opacity=".494" fill="url(#prefix__h)" />
    </g>
    <g>
        <path
            d="M246.5-238.5c-2.27 0-4.11 1.55-4.72 3.63-.69-.37-1.44-.63-2.28-.63-2.76 0-5 2.24-5 5 0 .58.16 1.11.34 1.63-1.37.77-2.34 2.18-2.34 3.87 0 2.48 2.02 4.5 4.5 4.5h19c2.48 0 4.5-2.02 4.5-4.5 0-1.69-.97-3.1-2.34-3.87.18-.52.34-1.05.34-1.63 0-2.76-2.24-5-5-5-.84 0-1.59.26-2.28.63-.61-2.08-2.45-3.63-4.72-3.63z"
            stroke="#555753" stroke-miterlimit="2" fill="#888a85" transform="matrix(.99968 0 0 1 -214.873 253)" />
        <path
            d="M246.5-238c-2.19 0-3.72 1.34-4.4 3.84-.66-.34-1.54-.83-2.35-.83-2.72 0-4.76 1.94-4.76 4.55 0 .54.27 1.33.45 1.82-1.33.73-2.44 1.89-2.44 3.37 0 2.35 1.55 4.25 4.34 4.25h18.32c2.77 0 4.34-1.9 4.34-4.25 0-1.59-1.11-2.67-2.44-3.39.18-.49.47-1.26.47-1.8 0-2.61-2.12-4.57-4.78-4.57-.81 0-1.64.49-2.31.83-.65-2.42-2.25-3.82-4.44-3.82z"
            fill="url(#prefix__i)" transform="matrix(.99968 0 0 1 -214.873 253)" />
        <path d="M35.049 19.502a3.502 3.503 0 11-7.003 0 3.502 3.503 0 117.003 0z" fill="#888a85" />
        <path d="M291.69-437.59a3.313 3.313 0 11-6.63 0 3.313 3.313 0 116.63 0z"
            transform="matrix(1.05626 0 0 1.0566 -273.052 481.86)" opacity=".478" fill="url(#prefix__j)" />
        <path fill="#888a85" d="M22.051 22h19.994v9H22.05z" />
        <path
            d="M25.052 28.002a3.001 3.002 0 11-6.002 0 3.001 3.002 0 116.002 0zM42.046 22.502a3.502 3.503 0 11-7.003 0 3.502 3.503 0 117.003 0z"
            fill="#888a85" />
        <path d="M291.69-437.59a3.313 3.313 0 11-6.63 0 3.313 3.313 0 116.63 0z"
            transform="matrix(1.05626 0 0 1.0566 -266.055 484.86)" opacity=".478" fill="url(#prefix__k)" />
        <path d="M28.05 22.502a3.502 3.503 0 11-7.002 0 3.502 3.503 0 117.003 0z" fill="#888a85" />
        <path d="M291.69-437.59a3.313 3.313 0 11-6.63 0 3.313 3.313 0 116.63 0z"
            transform="matrix(1.05626 0 0 1.0566 -280.05 484.86)" opacity=".478" fill="url(#prefix__l)" />
        <path
            d="M30.518 19.03c-3.578 0-6.468 2.92-6.468 6.5 0 2.37 1.35 4.34 3.25 5.47h6.467c1.9-1.13 3.25-3.13 3.25-5.5 0-3.58-2.92-6.47-6.499-6.47z"
            fill="#888a85" />
        <path
            d="M245.5-234a6.5 6.5 0 00-6.5 6.5c0 2.38 1.34 4.37 3.25 5.5h6.5c1.91-1.13 3.25-3.12 3.25-5.5a6.5 6.5 0 00-6.5-6.5z"
            opacity=".478" fill="url(#prefix__m)" transform="matrix(.99968 0 0 1 -214.873 253)" />
        <path d="M291.69-437.59a3.313 3.313 0 11-6.63 0 3.313 3.313 0 116.63 0z"
            transform="matrix(.90537 0 0 .90566 -239.035 424.31)" opacity=".478" fill="url(#prefix__n)" />
        <path d="M44.004 22.67c-.01 2.68-3.269 3.71-3.269 3.71s2.35-1.63 2.33-3.7l.94-.01z" fill-rule="evenodd"
            fill="#555753" />
        <path d="M39.034 27.03a4.002 4.003 0 11-8.003 0 4.002 4.003 0 118.003 0z" fill="#888a85" />
        <path d="M291.69-437.59a3.313 3.313 0 11-6.63 0 3.313 3.313 0 116.63 0z"
            transform="matrix(1.20711 0 0 1.2075 -313.069 555.42)" opacity=".478" fill="url(#prefix__o)" />
    </g>
    <g>
        <path
            d="M246.5-238.5c-2.27 0-4.11 1.55-4.72 3.63-.69-.37-1.44-.63-2.28-.63-2.76 0-5 2.24-5 5 0 .58.16 1.11.34 1.63-1.37.77-2.34 2.18-2.34 3.87 0 2.48 2.02 4.5 4.5 4.5h19c2.48 0 4.5-2.02 4.5-4.5 0-1.69-.97-3.1-2.34-3.87.18-.52.34-1.05.34-1.63 0-2.76-2.24-5-5-5-.84 0-1.59.26-2.28.63-.61-2.08-2.45-3.63-4.72-3.63z"
            stroke="#555753" stroke-miterlimit="2" fill="#888a85" transform="matrix(.99968 0 0 1 -229.882 248.984)" />
        <path
            d="M246.5-238c-2.19 0-3.72 1.34-4.4 3.84-.66-.34-1.54-.83-2.35-.83-2.72 0-4.76 1.94-4.76 4.55 0 .54.27 1.33.45 1.82-1.33.73-2.44 1.89-2.44 3.37 0 2.35 1.55 4.25 4.34 4.25h18.32c2.77 0 4.34-1.9 4.34-4.25 0-1.59-1.11-2.67-2.44-3.39.18-.49.47-1.26.47-1.8 0-2.61-2.12-4.57-4.78-4.57-.81 0-1.64.49-2.31.83-.65-2.42-2.25-3.82-4.44-3.82z"
            fill="url(#prefix__i)" transform="matrix(.99968 0 0 1 -229.882 248.984)" />
        <path d="M20.04 15.486a3.502 3.503 0 11-7.004 0 3.502 3.503 0 117.003 0z" fill="#888a85" />
        <path d="M291.69-437.59a3.313 3.313 0 11-6.63 0 3.313 3.313 0 116.63 0z"
            transform="matrix(1.05626 0 0 1.0566 -288.062 477.844)" opacity=".478" fill="url(#prefix__j)" />
        <path fill="#888a85" d="M7.042 17.984h19.994v9H7.042z" />
        <path
            d="M10.043 23.986a3.001 3.002 0 11-6.003 0 3.001 3.002 0 116.003 0zM27.037 18.486a3.502 3.503 0 11-7.003 0 3.502 3.503 0 117.003 0z"
            fill="#888a85" />
        <path d="M291.69-437.59a3.313 3.313 0 11-6.63 0 3.313 3.313 0 116.63 0z"
            transform="matrix(1.05626 0 0 1.0566 -281.064 480.844)" opacity=".478" fill="url(#prefix__k)" />
        <path d="M13.042 18.486a3.502 3.503 0 11-7.003 0 3.502 3.503 0 117.003 0z" fill="#888a85" />
        <path d="M291.69-437.59a3.313 3.313 0 11-6.63 0 3.313 3.313 0 116.63 0z"
            transform="matrix(1.05626 0 0 1.0566 -295.06 480.844)" opacity=".478" fill="url(#prefix__l)" />
        <path
            d="M15.51 15.014c-3.58 0-6.469 2.92-6.469 6.5 0 2.37 1.35 4.34 3.25 5.47h6.467c1.9-1.13 3.25-3.13 3.25-5.5 0-3.58-2.92-6.47-6.499-6.47z"
            fill="#888a85" />
        <path
            d="M245.5-234a6.5 6.5 0 00-6.5 6.5c0 2.38 1.34 4.37 3.25 5.5h6.5c1.91-1.13 3.25-3.12 3.25-5.5a6.5 6.5 0 00-6.5-6.5z"
            opacity=".478" fill="url(#prefix__m)" transform="matrix(.99968 0 0 1 -229.882 248.984)" />
        <path d="M291.69-437.59a3.313 3.313 0 11-6.63 0 3.313 3.313 0 116.63 0z"
            transform="matrix(.90537 0 0 .90566 -254.045 420.294)" opacity=".478" fill="url(#prefix__n)" />
        <path d="M28.995 18.654c-.01 2.68-3.27 3.71-3.27 3.71s2.35-1.63 2.33-3.7l.94-.01z" fill-rule="evenodd"
            fill="#555753" />
        <path d="M24.025 23.014a4.002 4.003 0 11-8.003 0 4.002 4.003 0 118.003 0z" fill="#888a85" />
        <path d="M291.69-437.59a3.313 3.313 0 11-6.63 0 3.313 3.313 0 116.63 0z"
            transform="matrix(1.20711 0 0 1.2075 -328.078 551.404)" opacity=".478" fill="url(#prefix__o)" />
    </g>
    <g>
        <path d="M8.68 32.24c-1.04-.6-1.4-1.92-.8-2.95 1.33-2.08 3.11-1.55 4.01-3.74 1.26 1.33.8 8.25-3.21 6.69z"
            stroke="#204a87" stroke-miterlimit="2" stroke-width="1.075" fill="#729fcf" />
        <path d="M234.31-229.9c-.49.86-1.57 1.16-2.42.66s-1.14-1.61-.65-2.47 2.6-.45 3.34-2.29c.85.5.22 3.23-.27 4.1z"
            opacity=".461" fill="url(#prefix__b)" transform="translate(-222.95 261.01)" />
        <path d="M233.02-229c-4.61-1.07.24-4.72.98-3.92-3.58 1.37-.98 3.92-.98 3.92z" fill="url(#prefix__c)"
            transform="translate(-222.95 261.01)" />
    </g>
    <g>
        <path d="M37.67 39.24c-1.04-.6-1.4-1.92-.8-2.95 1.33-2.08 3.11-1.55 4.01-3.74 1.26 1.33.8 8.25-3.21 6.69z"
            stroke="#204a87" stroke-miterlimit="2" stroke-width="1.075" fill="#729fcf" />
        <path d="M234.31-229.9c-.49.86-1.57 1.16-2.42.66s-1.14-1.61-.65-2.47 2.6-.45 3.34-2.29c.85.5.22 3.23-.27 4.1z"
            opacity=".461" fill="url(#prefix__b)" transform="translate(-193.96 268.01)" />
        <path d="M233.02-229c-4.61-1.07.24-4.72.98-3.92-3.58 1.37-.98 3.92-.98 3.92z" fill="url(#prefix__c)"
            transform="translate(-193.96 268.01)" />
    </g>
    <g>
        <path d="M6.67 42.24c-1.04-.6-1.4-1.92-.8-2.95 1.33-2.08 3.11-1.55 4.01-3.74 1.26 1.33.8 8.25-3.21 6.69z"
            stroke="#204a87" stroke-miterlimit="2" stroke-width="1.075" fill="#729fcf" />
        <path d="M234.31-229.9c-.49.86-1.57 1.16-2.42.66s-1.14-1.61-.65-2.47 2.6-.45 3.34-2.29c.85.5.22 3.23-.27 4.1z"
            opacity=".461" fill="url(#prefix__b)" transform="translate(-224.96 271.01)" />
        <path d="M233.02-229c-4.61-1.07.24-4.72.98-3.92-3.58 1.37-.98 3.92-.98 3.92z" fill="url(#prefix__c)"
            transform="translate(-224.96 271.01)" />
    </g>
    <g>
        <path d="M16.67 37.24c-1.04-.6-1.4-1.92-.8-2.95 1.33-2.08 3.11-1.55 4.01-3.74 1.26 1.33.8 8.25-3.21 6.69z"
            stroke="#204a87" stroke-miterlimit="2" stroke-width="1.075" fill="#729fcf" />
        <path d="M234.31-229.9c-.49.86-1.57 1.16-2.42.66s-1.14-1.61-.65-2.47 2.6-.45 3.34-2.29c.85.5.22 3.23-.27 4.1z"
            opacity=".461" fill="url(#prefix__b)" transform="translate(-214.96 266.01)" />
        <path d="M233.02-229c-4.61-1.07.24-4.72.98-3.92-3.58 1.37-.98 3.92-.98 3.92z" fill="url(#prefix__c)"
            transform="translate(-214.96 266.01)" />
    </g>
    <g>
        <path d="M30.67 32.24c-1.04-.6-1.4-1.92-.8-2.95 1.33-2.08 3.11-1.55 4.01-3.74 1.26 1.33.8 8.25-3.21 6.69z"
            stroke="#204a87" stroke-miterlimit="2" stroke-width="1.075" fill="#729fcf" />
        <path d="M234.31-229.9c-.49.86-1.57 1.16-2.42.66s-1.14-1.61-.65-2.47 2.6-.45 3.34-2.29c.85.5.22 3.23-.27 4.1z"
            opacity=".461" fill="url(#prefix__b)" transform="translate(-200.96 261.01)" />
        <path d="M233.02-229c-4.61-1.07.24-4.72.98-3.92-3.58 1.37-.98 3.92-.98 3.92z" fill="url(#prefix__c)"
            transform="translate(-200.96 261.01)" />
    </g>
</svg>