<svg xmlns="http://www.w3.org/2000/svg" xmlns:xlink="http://www.w3.org/1999/xlink" viewBox="0 0 48 48">
    <defs>
        <linearGradient id="prefix__h" y2="-436.83" xlink:href="#prefix__a" gradientUnits="userSpaceOnUse" x2="288.9"
            y1="-441.23" x1="284.8" />
        <linearGradient id="prefix__g" y2="-436.71" xlink:href="#prefix__a" gradientUnits="userSpaceOnUse" x2="289.77"
            y1="-439.48" x1="286.67" />
        <linearGradient id="prefix__f" y2="-431.92" xlink:href="#prefix__a" gradientUnits="userSpaceOnUse" x2="279.98"
            y1="-437.11" x1="275.94" />
        <linearGradient id="prefix__e" y2="-436.44" xlink:href="#prefix__a" gradientUnits="userSpaceOnUse" x2="289.39"
            y1="-439.94" x1="285.94" />
        <linearGradient id="prefix__d" y2="-436.14" xlink:href="#prefix__a" gradientUnits="userSpaceOnUse" x2="289.85"
            y1="-441.29" x1="286.51" />
        <linearGradient id="prefix__c" y2="-436.32" xlink:href="#prefix__a" gradientUnits="userSpaceOnUse" x2="289.68"
            y1="-439.75" x1="287.52" />
        <linearGradient id="prefix__b" y2="-431.97" xlink:href="#prefix__a" gradientUnits="userSpaceOnUse" x2="285.03"
            y1="-441.05" x1="271.02" />
        <linearGradient id="prefix__a">
            <stop offset="0" stop-color="#fff" />
            <stop offset="1" stop-color="#fff" stop-opacity="0" />
        </linearGradient>
        <linearGradient id="prefix__k" y2="-9.559" gradientUnits="userSpaceOnUse" x2="-37.197" y1="-25.327"
            x1="-28.969">
            <stop offset="0" stop-color="#fff9c6" />
            <stop offset=".542" stop-color="#fff28c" />
            <stop offset="1" stop-color="#ffea85" />
        </linearGradient>
        <radialGradient id="prefix__j" gradientUnits="userSpaceOnUse" cy="-22.113" cx="-33.519"
            gradientTransform="matrix(.48774 1.2924 -1.1027 .49724 -41.774 32.415)" r="9.5">
            <stop offset="0" stop-color="#fff7c2" stop-opacity=".638" />
            <stop offset=".594" stop-color="#fcaf3e" stop-opacity=".183" />
            <stop offset=".839" stop-color="#fcaf3e" stop-opacity=".505" />
            <stop offset="1" stop-color="#fcaf3e" />
        </radialGradient>
        <radialGradient id="prefix__i" gradientUnits="userSpaceOnUse" cy="23.382" cx="24"
            gradientTransform="matrix(1.0067 0 0 1.0075 -.16 .427)" r="19.142">
            <stop offset="0" stop-color="#fff" stop-opacity="0" />
            <stop offset=".75" stop-color="#fff" stop-opacity="0" />
            <stop offset="1" stop-color="#fff" />
        </radialGradient>
    </defs>
    <path
        d="M16.51 14.49c-2.27 0-4.11 1.55-4.72 3.62-.69-.36-1.44-.62-2.28-.62-2.76 0-5 2.24-5 5 0 .58.16 1.11.34 1.62-1.37.78-2.34 2.19-2.34 3.88 0 2.48 2.02 4.5 4.5 4.5h19c2.48 0 4.5-2.02 4.5-4.5 0-1.69-.97-3.1-2.34-3.88.18-.51.34-1.04.34-1.62 0-2.76-2.24-5-5-5-.84 0-1.59.26-2.28.62-.61-2.07-2.45-3.62-4.72-3.62z"
        stroke="#888a85" stroke-miterlimit="2" fill="#c4c5c2" />
    <path
        d="M280.5-445c-2.19 0-3.72 1.34-4.4 3.84-.66-.34-1.54-.83-2.35-.83-2.72 0-4.76 1.94-4.76 4.55 0 .54.27 1.33.45 1.82-1.33.73-2.44 1.89-2.44 3.37 0 2.35 1.55 4.25 4.34 4.25h18.32c2.77 0 4.34-1.9 4.34-4.25 0-1.59-1.11-2.67-2.44-3.39.18-.49.47-1.26.47-1.8 0-2.61-2.12-4.57-4.78-4.57-.81 0-1.64.49-2.31.83-.65-2.42-2.25-3.82-4.44-3.82z"
        fill="url(#prefix__b)" transform="translate(-263.99 459.99)" />
    <path d="M20.012 19.495a3.503 3.503 0 11-7.006 0 3.503 3.503 0 117.006 0z" fill="#c4c5c2" />
    <path d="M291.69-437.59a3.313 3.313 0 11-6.63 0 3.313 3.313 0 116.63 0z"
        transform="translate(-288.188 481.853) scale(1.0566)" fill="url(#prefix__c)" />
    <path fill="#c4c5c2" d="M7.01 21.99h20v9h-20z" />
    <path
        d="M10.012 27.993a3.002 3.002 0 11-6.004 0 3.002 3.002 0 116.004 0zM27.012 22.495a3.503 3.503 0 11-7.006 0 3.503 3.503 0 117.006 0z"
        fill="#c4c5c2" />
    <path d="M291.69-437.59a3.313 3.313 0 11-6.63 0 3.313 3.313 0 116.63 0z"
        transform="translate(-281.188 484.853) scale(1.0566)" fill="url(#prefix__d)" />
    <path d="M13.012 22.495a3.503 3.503 0 11-7.006 0 3.503 3.503 0 117.006 0z" fill="#c4c5c2" />
    <path d="M291.69-437.59a3.313 3.313 0 11-6.63 0 3.313 3.313 0 116.63 0z"
        transform="translate(-295.188 484.853) scale(1.0566)" fill="url(#prefix__e)" />
    <path
        d="M15.48 19.02c-3.58 0-6.47 2.92-6.47 6.5 0 2.37 1.35 4.34 3.25 5.47h6.47c1.9-1.13 3.25-3.13 3.25-5.5 0-3.58-2.92-6.47-6.5-6.47z"
        fill="#c4c5c2" />
    <path
        d="M280.5-441a6.5 6.5 0 00-6.5 6.5c0 2.38 1.34 4.37 3.25 5.5h6.5c1.91-1.13 3.25-3.12 3.25-5.5a6.5 6.5 0 00-6.5-6.5z"
        fill="url(#prefix__f)" transform="translate(-264.99 459.99)" />
    <path d="M291.69-437.59a3.313 3.313 0 11-6.63 0 3.313 3.313 0 116.63 0z"
        transform="translate(-254.16 424.301) scale(.90566)" fill="url(#prefix__g)" />
    <path d="M28.97 22.66c-.01 2.68-3.27 3.71-3.27 3.71s2.35-1.63 2.33-3.71h.94z" fill-rule="evenodd" fill="#888a85" />
    <g>
        <path d="M24.024 26.977a4.003 4.003 0 11-8.006 0 4.003 4.003 0 118.006 0z" fill="#c4c5c2" />
        <path d="M291.69-437.59a3.313 3.313 0 11-6.63 0 3.313 3.313 0 116.63 0z"
            transform="matrix(1.2076 0 0 1.2076 -328.217 555.406)" fill="url(#prefix__h)" />
    </g>
    <g>
        <g opacity=".7" stroke-linecap="square">
            <path
                d="M24 2.5l-2.375 6.688a15.065 15.065 0 014.75 0L24 2.5zM8.812 8.781l3.031 6.438a15.22 15.22 0 013.375-3.375L8.813 8.781zm30.406 0l-6.438 3.063a15.22 15.22 0 013.375 3.375l3.063-6.438zM9.186 21.594L2.498 23.97l6.688 2.375a15.065 15.065 0 010-4.75zm29.624.031c.124.774.188 1.566.188 2.375s-.064 1.601-.188 2.375L45.498 24l-6.688-2.375zM11.842 32.781L8.81 39.188l6.407-3.032a15.22 15.22 0 01-3.375-3.375zm24.312 0a15.197 15.197 0 01-3.344 3.344l6.407 3.063-3.063-6.407zm-14.531 6.031l2.375 6.688 2.375-6.688c-.774.124-1.566.188-2.375.188s-1.601-.064-2.375-.188z"
                stroke="#fcaf3e" stroke-width=".737" fill="#fce94f" />
            <path
                d="M24 5.25l-1.344 3.813C23.099 9.023 23.547 9 24 9s.901.023 1.344.063L24 5.25zm-13.219 5.5l1.719 3.625a15.527 15.527 0 011.906-1.906l-3.625-1.719zm26.469 0l-3.625 1.719c.68.569 1.337 1.226 1.906 1.906l1.719-3.625zM9.062 22.625l-3.781 1.344 3.781 1.343C9.025 24.88 9 24.442 9 24c0-.464.02-.922.062-1.375zm29.876.031c.039.443.062.891.062 1.344s-.023.901-.062 1.344L42.719 24l-3.781-1.344zm-3.407 10.938a15.571 15.571 0 01-1.906 1.937l3.625 1.719-1.719-3.656zm-23.031.031l-1.719 3.594 3.594-1.719a15.374 15.374 0 01-1.875-1.875zm10.156 5.313L24 42.719l1.344-3.781c-.443.039-.891.062-1.344.062s-.901-.023-1.344-.062z"
                stroke="url(#prefix__i)" stroke-width=".846" fill="none" />
        </g>
        <path d="M31.4 13.904A12.502 12.502 0 1116.619 34.07 12.502 12.502 0 1131.4 13.904z" stroke="#fcaf3e"
            stroke-linecap="square" stroke-width="1.000122" fill="#ffee54" />
        <path d="M-22.5-17.5a9.5 9.5 0 11-19 0 9.5 9.5 0 1119 0z"
            transform="matrix(1.2443 -.16771 .21664 1.2518 67.616 40.527)" fill="url(#prefix__j)" />
        <path d="M-22.5-17.5a9.5 9.5 0 11-19 0 9.5 9.5 0 1119 0z"
            transform="matrix(.71579 -.97635 .97635 .71579 64 5.27)" stroke="url(#prefix__k)" stroke-linecap="square"
            stroke-width=".826" fill="none" />
    </g>
    <g>
        <path
            d="M31.51 22.49c-2.27 0-4.11 1.55-4.72 3.62-.69-.36-1.44-.62-2.28-.62-2.76 0-5 2.24-5 5 0 .58.16 1.11.34 1.62-1.37.78-2.34 2.19-2.34 3.88 0 2.48 2.02 4.5 4.5 4.5h19c2.48 0 4.5-2.02 4.5-4.5 0-1.69-.97-3.1-2.34-3.88.18-.51.34-1.04.34-1.62 0-2.76-2.24-5-5-5-.84 0-1.59.26-2.28.62-.61-2.07-2.45-3.62-4.72-3.62z"
            stroke="#888a85" stroke-miterlimit="2" fill="#c4c5c2" />
        <path
            d="M280.5-445c-2.19 0-3.72 1.34-4.4 3.84-.66-.34-1.54-.83-2.35-.83-2.72 0-4.76 1.94-4.76 4.55 0 .54.27 1.33.45 1.82-1.33.73-2.44 1.89-2.44 3.37 0 2.35 1.55 4.25 4.34 4.25h18.32c2.77 0 4.34-1.9 4.34-4.25 0-1.59-1.11-2.67-2.44-3.39.18-.49.47-1.26.47-1.8 0-2.61-2.12-4.57-4.78-4.57-.81 0-1.64.49-2.31.83-.65-2.42-2.25-3.82-4.44-3.82z"
            fill="url(#prefix__b)" transform="translate(-248.99 467.99)" />
        <path d="M35.012 27.495a3.503 3.503 0 11-7.006 0 3.503 3.503 0 117.006 0z" fill="#c4c5c2" />
        <path d="M291.69-437.59a3.313 3.313 0 11-6.63 0 3.313 3.313 0 116.63 0z"
            transform="translate(-273.188 489.853) scale(1.0566)" fill="url(#prefix__c)" />
        <path fill="#c4c5c2" d="M22.01 29.99h20v9h-20z" />
        <path
            d="M25.012 35.993a3.002 3.002 0 11-6.004 0 3.002 3.002 0 116.004 0zM42.012 30.495a3.503 3.503 0 11-7.006 0 3.503 3.503 0 117.006 0z"
            fill="#c4c5c2" />
        <path d="M291.69-437.59a3.313 3.313 0 11-6.63 0 3.313 3.313 0 116.63 0z"
            transform="translate(-266.188 492.853) scale(1.0566)" fill="url(#prefix__d)" />
        <path d="M28.012 30.495a3.503 3.503 0 11-7.006 0 3.503 3.503 0 117.006 0z" fill="#c4c5c2" />
        <path d="M291.69-437.59a3.313 3.313 0 11-6.63 0 3.313 3.313 0 116.63 0z"
            transform="translate(-280.188 492.853) scale(1.0566)" fill="url(#prefix__e)" />
        <path
            d="M30.48 27.02c-3.58 0-6.47 2.92-6.47 6.5 0 2.37 1.35 4.34 3.25 5.47h6.47c1.9-1.13 3.25-3.13 3.25-5.5 0-3.58-2.92-6.47-6.5-6.47z"
            fill="#c4c5c2" />
        <path
            d="M280.5-441a6.5 6.5 0 00-6.5 6.5c0 2.38 1.34 4.37 3.25 5.5h6.5c1.91-1.13 3.25-3.12 3.25-5.5a6.5 6.5 0 00-6.5-6.5z"
            fill="url(#prefix__f)" transform="translate(-249.99 467.99)" />
        <path d="M291.69-437.59a3.313 3.313 0 11-6.63 0 3.313 3.313 0 116.63 0z"
            transform="translate(-239.16 432.301) scale(.90566)" fill="url(#prefix__g)" />
        <path d="M43.97 30.66c-.01 2.68-3.27 3.71-3.27 3.71s2.35-1.63 2.33-3.71h.94z" fill-rule="evenodd"
            fill="#888a85" />
        <g>
            <path d="M39.024 34.977a4.003 4.003 0 11-8.006 0 4.003 4.003 0 118.006 0z" fill="#c4c5c2" />
            <path d="M291.69-437.59a3.313 3.313 0 11-6.63 0 3.313 3.313 0 116.63 0z"
                transform="matrix(1.2076 0 0 1.2076 -313.217 563.406)" fill="url(#prefix__h)" />
        </g>
    </g>
</svg>